<svg xmlns="http://www.w3.org/2000/svg" version="1.1" xmlns:xlink="http://www.w3.org/1999/xlink" xmlns:svgjs="http://svgjs.dev/svgjs" width="2000" height="1500" viewBox="0 0 2000 1500"><rect width="2000" height="1500" fill="#0a1627"></rect><g transform="matrix(0.75,0,0,0.75,249.090909090909,461.2693583480849)"><svg viewBox="0 0 396 153" data-background-color="#0a1627" preserveAspectRatio="xMidYMid meet" height="772" width="2000" xmlns="http://www.w3.org/2000/svg" xmlns:xlink="http://www.w3.org/1999/xlink"><g id="tight-bounds" transform="matrix(1,0,0,1,0.2400000000000091,-0.20330194690325243)"><svg viewBox="0 0 395.52 153.4066038938065" height="153.4066038938065" width="395.52"><g><svg viewBox="0 0 625.2638057809056 242.51516227388086" height="153.4066038938065" width="395.52"><g transform="matrix(1,0,0,1,229.74380578090563,35.23733402637289)"><svg viewBox="0 0 395.52000000000004 172.04049422113508" height="172.04049422113508" width="395.52000000000004"><g id="textblocktransform"><svg viewBox="0 0 395.52000000000004 172.04049422113508" height="172.04049422113508" width="395.52000000000004" id="textblock"><g><svg viewBox="0 0 395.52000000000004 103.94393530997307" height="103.94393530997307" width="395.52000000000004"><g transform="matrix(1,0,0,1,0,0)"><svg width="395.52000000000004" viewBox="1.7 -37.8 185.48000000000002 48.75" height="103.94393530997307" data-palette-color="#fe0039"><path d="M29.45-34.6L31.6 0 24.9 0 24.45-14.2 24.35-17.25Q24.3-18.8 24.25-20.85 24.2-22.9 24.2-25.35L24.2-25.35 24.25-28.2 19.95-3.75 13.3-3.75 8.75-28.2Q8.9-24.9 8.9-21.65L8.9-21.65Q8.9-17.95 8.75-14.05L8.75-14.05 8.3 0 1.7 0 3.85-34.6 12.6-34.6 16.75-10.55 20.55-34.6 29.45-34.6ZM55.35-13.85Q55.35-13.3 55.2-11.2L55.2-11.2 41.65-11.2Q41.85-7.3 43.02-5.8 44.2-4.3 46.3-4.3L46.3-4.3Q47.75-4.3 49-4.83 50.25-5.35 51.7-6.45L51.7-6.45 54.5-2.7Q50.9 0.8 45.85 0.8L45.85 0.8Q40.5 0.8 37.65-2.85 34.8-6.5 34.8-13.05L34.8-13.05Q34.8-19.6 37.5-23.45 40.2-27.3 45.25-27.3L45.25-27.3Q50-27.3 52.67-23.88 55.35-20.45 55.35-13.85L55.35-13.85ZM48.75-15.4L48.75-15.8Q48.75-19.4 47.95-21.03 47.15-22.65 45.3-22.65L45.3-22.65Q43.6-22.65 42.72-21.05 41.85-19.45 41.65-15.4L41.65-15.4 48.75-15.4ZM77.55-30.15L79.25-25.1Q77.3-24.1 73.05-24.1L73.05-24.1Q75.2-23.05 76.22-21.43 77.25-19.8 77.25-17.3L77.25-17.3Q77.25-13.3 74.75-10.85 72.25-8.4 67.9-8.4L67.9-8.4Q66.75-8.4 65.45-8.75L65.45-8.75Q64.6-8.15 64.6-6.9L64.6-6.9Q64.6-5.95 65.12-5.48 65.65-5 67.15-5L67.15-5 69.85-5Q74-5 76.4-2.93 78.8-0.85 78.8 2.45L78.8 2.45Q78.8 6.3 75.8 8.63 72.8 10.95 67.3 10.95L67.3 10.95Q61.35 10.95 59.02 8.83 56.7 6.7 56.7 2.6L56.7 2.6 62.8 2.6Q62.8 4.6 63.72 5.48 64.65 6.35 67.35 6.35L67.35 6.35Q69.85 6.35 70.92 5.45 72 4.55 72 2.9L72 2.9Q72 1.3 71.12 0.55 70.25-0.2 68.4-0.2L68.4-0.2 66.4-0.2Q62.55-0.2 60.77-1.6 59-3 59-5.35L59-5.35Q59-8 61.75-10.15L61.75-10.15Q59.65-11.45 58.7-13.25 57.75-15.05 57.75-17.7L57.75-17.7Q57.75-22.1 60.4-24.65 63.05-27.2 67.6-27.2L67.6-27.2Q70.85-27.2 72.95-27.95 75.05-28.7 77.55-30.15L77.55-30.15ZM67.65-22.7Q66.05-22.7 65.22-21.55 64.4-20.4 64.4-17.8L64.4-17.8Q64.4-15.35 65.22-14.08 66.05-12.8 67.6-12.8L67.6-12.8Q69.2-12.8 69.97-13.95 70.75-15.1 70.75-17.9L70.75-17.9Q70.75-20.4 70-21.55 69.25-22.7 67.65-22.7L67.65-22.7ZM99.19-6.7Q99.19-5.4 99.52-4.8 99.84-4.2 100.64-3.8L100.64-3.8 99.24 0.7Q97.14 0.45 95.84-0.38 94.54-1.2 93.89-2.95L93.89-2.95Q91.59 0.8 87.39 0.8L87.39 0.8Q84.09 0.8 82.14-1.45 80.19-3.7 80.19-7.4L80.19-7.4Q80.19-11.75 82.87-14.03 85.54-16.3 90.69-16.3L90.69-16.3 92.54-16.3 92.54-17.9Q92.54-20.35 91.74-21.33 90.94-22.3 88.99-22.3L88.99-22.3Q86.74-22.3 83.24-21L83.24-21 81.69-25.35Q83.74-26.3 85.99-26.8 88.24-27.3 90.24-27.3L90.24-27.3Q99.19-27.3 99.19-18.25L99.19-18.25 99.19-6.7ZM89.34-4.1Q91.44-4.1 92.54-7L92.54-7 92.54-12.35 91.34-12.35Q89.04-12.35 87.97-11.28 86.89-10.2 86.89-7.95L86.89-7.95Q86.89-6.05 87.54-5.08 88.19-4.1 89.34-4.1L89.34-4.1ZM119.29-18.3Q122.54-17.6 124.47-15.65 126.39-13.7 126.39-10L126.39-10Q126.39-4.9 122.97-2.45 119.54 0 113.64 0L113.64 0 104.49 0 104.49-34.6 112.49-34.6Q118.54-34.6 121.87-32.35 125.19-30.1 125.19-25.75L125.19-25.75Q125.19-22.85 123.57-20.95 121.94-19.05 119.29-18.3L119.29-18.3ZM113.14-29.5L111.59-29.5 111.59-20.5 113.39-20.5Q115.84-20.5 116.94-21.68 118.04-22.85 118.04-25.1L118.04-25.1Q118.04-27.35 116.87-28.43 115.69-29.5 113.14-29.5L113.14-29.5ZM113.69-5.25Q116.39-5.25 117.77-6.43 119.14-7.6 119.14-10.3L119.14-10.3Q119.14-13.05 117.87-14.35 116.59-15.65 113.84-15.65L113.84-15.65 111.59-15.65 111.59-5.25 113.69-5.25ZM135.89 0.8Q132.99 0.8 131.31-0.95 129.64-2.7 129.64-5.7L129.64-5.7 129.64-37.05 136.44-37.8 136.44-6Q136.44-4.65 137.59-4.65L137.59-4.65Q138.09-4.65 138.59-4.85L138.59-4.85 139.89-0.15Q138.09 0.8 135.89 0.8L135.89 0.8ZM152.24-27.3Q157.34-27.3 160.19-23.75 163.04-20.2 163.04-13.25L163.04-13.25Q163.04-6.6 160.16-2.9 157.29 0.8 152.24 0.8L152.24 0.8Q147.19 0.8 144.31-2.8 141.44-6.4 141.44-13.25L141.44-13.25Q141.44-20.05 144.29-23.68 147.14-27.3 152.24-27.3L152.24-27.3ZM152.24-22.15Q150.29-22.15 149.39-20.13 148.49-18.1 148.49-13.25L148.49-13.25Q148.49-8.35 149.39-6.33 150.29-4.3 152.24-4.3L152.24-4.3Q154.19-4.3 155.09-6.35 155.99-8.4 155.99-13.25L155.99-13.25Q155.99-18.15 155.09-20.15 154.19-22.15 152.24-22.15L152.24-22.15ZM185.48-30.15L187.18-25.1Q185.23-24.1 180.98-24.1L180.98-24.1Q183.13-23.05 184.16-21.43 185.18-19.8 185.18-17.3L185.18-17.3Q185.18-13.3 182.68-10.85 180.18-8.4 175.83-8.4L175.83-8.4Q174.68-8.4 173.38-8.75L173.38-8.75Q172.53-8.15 172.53-6.9L172.53-6.9Q172.53-5.95 173.06-5.48 173.58-5 175.08-5L175.08-5 177.78-5Q181.93-5 184.33-2.93 186.73-0.85 186.73 2.45L186.73 2.45Q186.73 6.3 183.73 8.63 180.73 10.95 175.23 10.95L175.23 10.95Q169.28 10.95 166.96 8.83 164.63 6.7 164.63 2.6L164.63 2.6 170.73 2.6Q170.73 4.6 171.66 5.48 172.58 6.35 175.28 6.35L175.28 6.35Q177.78 6.35 178.86 5.45 179.93 4.55 179.93 2.9L179.93 2.9Q179.93 1.3 179.06 0.55 178.18-0.2 176.33-0.2L176.33-0.2 174.33-0.2Q170.48-0.2 168.71-1.6 166.93-3 166.93-5.35L166.93-5.35Q166.93-8 169.68-10.15L169.68-10.15Q167.58-11.45 166.63-13.25 165.68-15.05 165.68-17.7L165.68-17.7Q165.68-22.1 168.33-24.65 170.98-27.2 175.53-27.2L175.53-27.2Q178.78-27.2 180.88-27.95 182.98-28.7 185.48-30.15L185.48-30.15ZM175.58-22.7Q173.98-22.7 173.16-21.55 172.33-20.4 172.33-17.8L172.33-17.8Q172.33-15.35 173.16-14.08 173.98-12.8 175.53-12.8L175.53-12.8Q177.13-12.8 177.91-13.95 178.68-15.1 178.68-17.9L178.68-17.9Q178.68-20.4 177.93-21.55 177.18-22.7 175.58-22.7L175.58-22.7Z" opacity="1" transform="matrix(1,0,0,1,0,0)" fill="#fe0039" class="wordmark-text-0" data-fill-palette-color="primary" id="text-0"></path></svg></g></svg></g><g transform="matrix(1,0,0,1,0,128.48260378221028)"><svg viewBox="0 0 395.52000000000004 43.557890438924815" height="43.557890438924815" width="395.52000000000004"><g transform="matrix(1,0,0,1,0,0)"><svg width="395.52000000000004" viewBox="3 -37.7 440.8 48.550000000000004" height="43.557890438924815" data-palette-color="#c1c1c1"><path d="M3-34.55L20.15-34.55 19.5-29.8 9.35-29.8 9.35-19.9 18.2-19.9 18.2-15.2 9.35-15.2 9.35-4.8 20.15-4.8 20.15 0 3 0 3-34.55ZM41.95-26.45L35.85-14.15 43 0 36.5 0 32.1-10.65 27.8 0 21.45 0 28.6-13.95 22.15-26.45 28.55-26.45 32.2-17.25 35.75-26.45 41.95-26.45ZM57.9-27.15Q61.8-27.15 63.8-23.58 65.8-20 65.8-13.3L65.8-13.3Q65.8-6.8 63.52-3.03 61.25 0.75 57.2 0.75L57.2 0.75Q54 0.75 51.85-2.1L51.85-2.1 51.85 10.15 45.7 10.85 45.7-26.45 51.15-26.45 51.4-23.25Q52.7-25.25 54.3-26.2 55.9-27.15 57.9-27.15L57.9-27.15ZM55.55-3.95Q57.45-3.95 58.45-6.13 59.45-8.3 59.45-13.25L59.45-13.25Q59.45-18.45 58.6-20.5 57.75-22.55 55.95-22.55L55.95-22.55Q53.65-22.55 51.85-19.25L51.85-19.25 51.85-6.45Q53.45-3.95 55.55-3.95L55.55-3.95ZM82.04-27.1Q83.19-27.1 84.09-26.75L84.09-26.75 83.09-20.85Q82.09-21.1 81.24-21.1L81.24-21.1Q79.34-21.1 78.24-19.45 77.14-17.8 76.54-14.55L76.54-14.55 76.54 0 70.39 0 70.39-26.45 75.74-26.45 76.19-21.85Q78.04-27.1 82.04-27.1L82.04-27.1ZM105.79-13.85Q105.79-13.4 105.64-11.3L105.64-11.3 91.99-11.3Q92.19-7.2 93.42-5.58 94.64-3.95 96.89-3.95L96.89-3.95Q98.44-3.95 99.69-4.48 100.94-5 102.39-6.15L102.39-6.15 104.94-2.65Q101.44 0.75 96.54 0.75L96.54 0.75Q91.34 0.75 88.57-2.85 85.79-6.45 85.79-13L85.79-13Q85.79-19.55 88.44-23.35 91.09-27.15 95.94-27.15L95.94-27.15Q100.59-27.15 103.19-23.78 105.79-20.4 105.79-13.85L105.79-13.85ZM99.79-15.3L99.79-15.65Q99.79-19.4 98.89-21.13 97.99-22.85 95.99-22.85L95.99-22.85Q94.14-22.85 93.17-21.18 92.19-19.5 91.99-15.3L91.99-15.3 99.79-15.3ZM117.44-27.15Q122.14-27.15 125.39-24.05L125.39-24.05 123.04-20.7Q121.64-21.7 120.39-22.2 119.14-22.7 117.84-22.7L117.84-22.7Q116.39-22.7 115.56-21.93 114.74-21.15 114.74-19.8L114.74-19.8Q114.74-18.45 115.66-17.63 116.59-16.8 119.39-15.7L119.39-15.7Q122.84-14.35 124.49-12.5 126.14-10.65 126.14-7.55L126.14-7.55Q126.14-3.7 123.44-1.48 120.74 0.75 116.59 0.75L116.59 0.75Q113.89 0.75 111.61-0.23 109.34-1.2 107.64-2.95L107.64-2.95 110.64-6.25Q113.44-3.8 116.34-3.8L116.34-3.8Q117.99-3.8 118.94-4.67 119.89-5.55 119.89-7.1L119.89-7.1Q119.89-8.25 119.49-8.97 119.09-9.7 118.09-10.33 117.09-10.95 115.09-11.7L115.09-11.7Q111.64-13.05 110.16-14.85 108.69-16.65 108.69-19.45L108.69-19.45Q108.69-22.8 111.06-24.98 113.44-27.15 117.44-27.15L117.44-27.15ZM137.34-27.15Q142.04-27.15 145.29-24.05L145.29-24.05 142.94-20.7Q141.54-21.7 140.29-22.2 139.04-22.7 137.74-22.7L137.74-22.7Q136.29-22.7 135.46-21.93 134.64-21.15 134.64-19.8L134.64-19.8Q134.64-18.45 135.56-17.63 136.49-16.8 139.29-15.7L139.29-15.7Q142.74-14.35 144.39-12.5 146.04-10.65 146.04-7.55L146.04-7.55Q146.04-3.7 143.34-1.48 140.64 0.75 136.49 0.75L136.49 0.75Q133.79 0.75 131.51-0.23 129.24-1.2 127.54-2.95L127.54-2.95 130.54-6.25Q133.34-3.8 136.24-3.8L136.24-3.8Q137.89-3.8 138.84-4.67 139.79-5.55 139.79-7.1L139.79-7.1Q139.79-8.25 139.39-8.97 138.99-9.7 137.99-10.33 136.99-10.95 134.99-11.7L134.99-11.7Q131.54-13.05 130.06-14.85 128.59-16.65 128.59-19.45L128.59-19.45Q128.59-22.8 130.96-24.98 133.34-27.15 137.34-27.15L137.34-27.15ZM157.28-34.55L178.83-34.55 178.13-29.55 171.03-29.55 171.03 0 164.68 0 164.68-29.55 157.28-29.55 157.28-34.55ZM194.08-27.15Q196.93-27.15 198.58-25.1 200.23-23.05 200.23-19.6L200.23-19.6 200.23 0 194.08 0 194.08-18.9Q194.08-20.8 193.55-21.63 193.03-22.45 192.03-22.45L192.03-22.45Q189.93-22.45 187.88-18.5L187.88-18.5 187.88 0 181.73 0 181.73-37 187.88-37.65 187.88-23.3Q189.13-25.25 190.6-26.2 192.08-27.15 194.08-27.15L194.08-27.15ZM217.43-27.1Q218.58-27.1 219.48-26.75L219.48-26.75 218.48-20.85Q217.48-21.1 216.63-21.1L216.63-21.1Q214.73-21.1 213.63-19.45 212.53-17.8 211.93-14.55L211.93-14.55 211.93 0 205.78 0 205.78-26.45 211.13-26.45 211.58-21.85Q213.43-27.1 217.43-27.1L217.43-27.1ZM231.72-27.15Q236.72-27.15 239.5-23.65 242.27-20.15 242.27-13.25L242.27-13.25Q242.27-6.65 239.47-2.95 236.67 0.75 231.72 0.75L231.72 0.75Q226.77 0.75 223.97-2.88 221.17-6.5 221.17-13.25L221.17-13.25Q221.17-19.95 223.97-23.55 226.77-27.15 231.72-27.15L231.72-27.15ZM231.72-22.5Q229.57-22.5 228.57-20.38 227.57-18.25 227.57-13.25L227.57-13.25Q227.57-8.2 228.57-6.08 229.57-3.95 231.72-3.95L231.72-3.95Q233.87-3.95 234.87-6.08 235.87-8.2 235.87-13.25L235.87-13.25Q235.87-18.3 234.87-20.4 233.87-22.5 231.72-22.5L231.72-22.5ZM264.97-26.45L264.97 0 259.62 0 259.32-3.35Q258.07-1.3 256.52-0.28 254.97 0.75 252.92 0.75L252.92 0.75Q250.02 0.75 248.35-1.3 246.67-3.35 246.67-6.65L246.67-6.65 246.67-26.45 252.82-26.45 252.82-7Q252.82-3.9 254.92-3.9L254.92-3.9Q256.12-3.9 257.07-4.83 258.02-5.75 258.82-7.45L258.82-7.45 258.82-26.45 264.97-26.45ZM288.62-29.85L290.17-25.1Q289.12-24.6 287.64-24.4 286.17-24.2 283.97-24.2L283.97-24.2Q286.07-23.2 287.09-21.53 288.12-19.85 288.12-17.4L288.12-17.4Q288.12-13.4 285.67-10.95 283.22-8.5 279.02-8.5L279.02-8.5Q277.77-8.5 276.47-8.9L276.47-8.9Q275.57-8.15 275.57-6.85L275.57-6.85Q275.57-5.85 276.12-5.35 276.67-4.85 278.17-4.85L278.17-4.85 280.97-4.85Q284.97-4.85 287.32-2.78 289.67-0.7 289.67 2.5L289.67 2.5Q289.67 6.3 286.74 8.58 283.82 10.85 278.42 10.85L278.42 10.85Q272.72 10.85 270.44 8.75 268.17 6.65 268.17 2.6L268.17 2.6 273.62 2.6Q273.62 4.75 274.62 5.65 275.62 6.55 278.47 6.55L278.47 6.55Q281.22 6.55 282.37 5.6 283.52 4.65 283.52 2.9L283.52 2.9Q283.52 1.2 282.57 0.4 281.62-0.4 279.62-0.4L279.62-0.4 277.72-0.4Q273.92-0.4 272.17-1.75 270.42-3.1 270.42-5.45L270.42-5.45Q270.42-6.8 271.14-8.03 271.87-9.25 273.12-10.2L273.12-10.2Q271.07-11.5 270.12-13.3 269.17-15.1 269.17-17.7L269.17-17.7Q269.17-22.05 271.77-24.58 274.37-27.1 278.77-27.1L278.77-27.1Q282.02-27.1 284.14-27.8 286.27-28.5 288.62-29.85L288.62-29.85ZM278.77-23Q277.02-23 276.12-21.75 275.22-20.5 275.22-17.8L275.22-17.8Q275.22-15.25 276.12-13.88 277.02-12.5 278.72-12.5L278.72-12.5Q280.47-12.5 281.32-13.73 282.17-14.95 282.17-17.85L282.17-17.85Q282.17-20.55 281.34-21.78 280.52-23 278.77-23L278.77-23ZM305.27-27.15Q308.12-27.15 309.77-25.1 311.42-23.05 311.42-19.6L311.42-19.6 311.42 0 305.27 0 305.27-18.9Q305.27-20.8 304.74-21.63 304.22-22.45 303.22-22.45L303.22-22.45Q301.12-22.45 299.07-18.5L299.07-18.5 299.07 0 292.92 0 292.92-37 299.07-37.65 299.07-23.3Q300.32-25.25 301.79-26.2 303.27-27.15 305.27-27.15L305.27-27.15ZM352.46-34.55L358.36-34.55 353.51 0 345.16 0 341.46-27.8 337.61 0 329.41 0 324.66-34.55 330.81-34.55 334.01-5.1 338.16-34.55 344.91-34.55 348.96-5.1 352.46-34.55ZM371.31-27.15Q376.31-27.15 379.08-23.65 381.86-20.15 381.86-13.25L381.86-13.25Q381.86-6.65 379.06-2.95 376.26 0.75 371.31 0.75L371.31 0.75Q366.36 0.75 363.56-2.88 360.76-6.5 360.76-13.25L360.76-13.25Q360.76-19.95 363.56-23.55 366.36-27.15 371.31-27.15L371.31-27.15ZM371.31-22.5Q369.16-22.5 368.16-20.38 367.16-18.25 367.16-13.25L367.16-13.25Q367.16-8.2 368.16-6.08 369.16-3.95 371.31-3.95L371.31-3.95Q373.46-3.95 374.46-6.08 375.46-8.2 375.46-13.25L375.46-13.25Q375.46-18.3 374.46-20.4 373.46-22.5 371.31-22.5L371.31-22.5ZM398.06-27.1Q399.21-27.1 400.11-26.75L400.11-26.75 399.11-20.85Q398.11-21.1 397.26-21.1L397.26-21.1Q395.36-21.1 394.26-19.45 393.16-17.8 392.56-14.55L392.56-14.55 392.56 0 386.41 0 386.41-26.45 391.76-26.45 392.21-21.85Q394.06-27.1 398.06-27.1L398.06-27.1ZM415.9-37.7L422.05-37.05 422.05 0 416.6 0 416.3-3.05Q413.95 0.75 410.25 0.75L410.25 0.75Q406.15 0.75 403.98-2.93 401.8-6.6 401.8-13.2L401.8-13.2Q401.8-17.4 402.93-20.58 404.05-23.75 406.05-25.45 408.05-27.15 410.65-27.15L410.65-27.15Q413.85-27.15 415.9-24.5L415.9-24.5 415.9-37.7ZM412-3.9Q413.15-3.9 414.08-4.7 415-5.5 415.9-7L415.9-7 415.9-19.85Q414.3-22.55 412.25-22.55L412.25-22.55Q408.2-22.55 408.2-13.25L408.2-13.25Q408.2-8.2 409.2-6.05 410.2-3.9 412-3.9L412-3.9ZM435.1-27.15Q439.8-27.15 443.05-24.05L443.05-24.05 440.7-20.7Q439.3-21.7 438.05-22.2 436.8-22.7 435.5-22.7L435.5-22.7Q434.05-22.7 433.23-21.93 432.4-21.15 432.4-19.8L432.4-19.8Q432.4-18.45 433.33-17.63 434.25-16.8 437.05-15.7L437.05-15.7Q440.5-14.35 442.15-12.5 443.8-10.65 443.8-7.55L443.8-7.55Q443.8-3.7 441.1-1.48 438.4 0.75 434.25 0.75L434.25 0.75Q431.55 0.75 429.28-0.23 427-1.2 425.3-2.95L425.3-2.95 428.3-6.25Q431.1-3.8 434-3.8L434-3.8Q435.65-3.8 436.6-4.67 437.55-5.55 437.55-7.1L437.55-7.1Q437.55-8.25 437.15-8.97 436.75-9.7 435.75-10.33 434.75-10.95 432.75-11.7L432.75-11.7Q429.3-13.05 427.83-14.85 426.35-16.65 426.35-19.45L426.35-19.45Q426.35-22.8 428.73-24.98 431.1-27.15 435.1-27.15L435.1-27.15Z" opacity="1" transform="matrix(1,0,0,1,0,0)" fill="#c1c1c1" class="slogan-text-1" data-fill-palette-color="secondary" id="text-1"></path></svg></g></svg></g></svg></g></svg></g><g><svg viewBox="0 0 205.20513730866844 242.51516227388086" height="242.51516227388086" width="205.20513730866844"><g><svg xmlns="http://www.w3.org/2000/svg" xmlns:xlink="http://www.w3.org/1999/xlink" version="1.0" x="0" y="0" viewBox="0 0 22 26" style="enable-background:new 0 0 22 26;" xml:space="preserve" height="242.51516227388086" width="205.20513730866844" class="icon-icon-0" data-fill-palette-color="accent" id="icon-0"><path d="M20.627 12.628C21.918 3.755 16.778 0 11 0 5.227 0-0.08 3.722 1.354 12.604 0.529 13.274 0 14.443 0 15.84 0 17.711 1.793 19.317 3.181 19.827 4.482 24.155 9.222 26 11 26 12.773 26 17.492 24.166 18.809 19.865 20.353 19.375 22 17.624 22 15.84 22 14.492 21.45 13.313 20.627 12.628M7 12.302C6.282 12.302 5.698 11.718 5.698 11S6.282 9.698 7 9.698 8.302 10.282 8.302 11 7.718 12.302 7 12.302M11 12.302C10.282 12.302 9.698 11.718 9.698 11S10.282 9.698 11 9.698 12.302 10.282 12.302 11 11.718 12.302 11 12.302M15 12.302C14.282 12.302 13.698 11.718 13.698 11S14.282 9.698 15 9.698 16.302 10.282 16.302 11 15.718 12.302 15 12.302" fill="#c1c1c1" data-fill-palette-color="accent"></path></svg></g></svg></g></svg></g><defs></defs></svg><rect width="395.52" height="153.4066038938065" fill="none" stroke="none" visibility="hidden"></rect></g></svg></g></svg>